<svg id="Layer_1" data-name="Layer 1" xmlns="http://www.w3.org/2000/svg" viewBox="0 0 41.24 41.24" fill="rgba(0,0,0,0.2)"><title>profile</title><path d="M30.52,26.19a7.21,7.21,0,0,0-4.73-6.65,6.66,6.66,0,0,0,1.43-6.07,6.14,6.14,0,0,0-3.6-4.29,6.62,6.62,0,0,0-9.33,6,6.72,6.72,0,0,0,1.62,4.34,7,7,0,0,0-4.72,6.65v5a1.5,1.5,0,0,0,1.48,1.45H29a1.48,1.48,0,0,0,1.48-1.48ZM19.93,11.43A4,4,0,1,1,17,14.37,4,4,0,0,1,19.93,11.43ZM13.72,30v-3.8a4.43,4.43,0,0,1,4.41-4.41h5.34a4.43,4.43,0,0,1,4.41,4.41V30Z"/><path d="M0,0V41.24H41.24V0ZM39.74,39.74H1.5V1.5H39.74Z"/></svg>