<?xml version="1.0" encoding="utf-8"?>
<!-- Generator: Adobe Illustrator 19.0.0, SVG Export Plug-In . SVG Version: 6.00 Build 0)  -->
<svg version="1.1" id="layer" xmlns="http://www.w3.org/2000/svg" xmlns:xlink="http://www.w3.org/1999/xlink" x="0px" y="0px"
	 viewBox="-153 -46 652 652" style="enable-background:new -153 -46 652 652;" xml:space="preserve">
<style type="text/css">
	.st0{fill:#009EE2;}
	.st1{fill:#621360;}
	.st2{fill:#0076A6;}
	.st3{fill:#3C0238;}
	.st4{fill:#505456;}
</style>
<path class="st0" d="M-42.1,210.1c0,50.3,40.8,90.7,90.7,90.7h90.7V28.6H-42.1V210.1z"/>
<path class="st1" d="M139.3,119.3L139.3,119.3H48.6v181.5v90.7l90.7-90.7c50.3,0,90.7-40.8,90.7-90.7
	C230.4,160.2,189.6,119.3,139.3,119.3z"/>
<polygon class="st2" points="139.3,28.6 139.3,119.3 48.6,119.3 "/>
<rect x="48.6" y="119.3" class="st3" width="90.7" height="181.5"/>
<path class="st4" d="M-23.6,469.9c-12.4,0-18.6-7.3-18.6-18.2V424h8.7v27.7c0,6.6,3.3,10.9,10.2,10.9s10.2-4.4,10.2-10.9V424h8.7
	v27.7C-4.6,462.6-11.2,469.9-23.6,469.9z M31.8,469.2l-20.8-31v31H2.7V424h9.1l20.4,30.6V424h8.4v45.2H31.8z M48.6,469.2V424h8.7
	v45.2H48.6z M87.6,469.2h-9.5L62.4,424h9.1l11.7,34.6L94.9,424h8.7L87.6,469.2z M108.4,469.2V424h33.9v7.3h-25.5v10.6H139v7.3h-22.2
	v12.4h25.5v7.3h-33.9V469.2z M176.1,469.2l-8-17.1h-10.6v17.1h-8.7V424h20c11.3,0,16.4,6.9,16.4,14.2c0,6.2-3.6,10.9-8.7,12.8
	l8.7,18.6h-9.1V469.2z M168.9,431.3h-11.3v13.5h11.7c4.7,0,7.7-2.6,7.7-6.6C176.9,434.2,174,431.3,168.9,431.3z M222.8,465.2
	c-3.6,3.3-9.1,4.7-14.9,4.7c-5.1,0-10.2-1.1-14.2-4.7c-2.9-2.6-5.1-6.2-5.1-10.6h8.7c0,2.2,1.1,4.4,2.6,5.5c2.2,1.8,5.1,2.6,8,2.6
	c3.3,0,6.6-0.7,8.4-2.6c1.1-1.1,1.8-2.2,1.8-4.4c0-3.3-2.6-4.7-5.8-5.5c-3.3-0.7-7.3-0.7-10.6-1.1c-6.6-1.1-12-5.1-12-12.8
	c0-3.6,1.8-6.6,4-8.7c3.3-2.9,8.4-4.7,13.8-4.7c5.1,0,10.2,1.5,13.5,4.4c2.9,2.6,4.7,5.8,4.7,9.5H217c0-1.5-1.1-3.3-2.2-4.4
	c-1.5-1.5-4.7-2.6-7.3-2.6s-5.8,0.7-7.7,2.6c-1.1,1.1-1.5,2.2-1.5,3.6c0,2.9,2.2,4.4,4.7,4.7c2.9,0.4,7.3,0.7,10.2,1.1
	c7.3,1.1,13.1,5.5,13.1,13.1C226.8,460.1,225,463,222.8,465.2z M232.6,469.2V424h8.7v45.2H232.6z M270.5,431.7v37.5h-8.7v-37.5
	h-14.2V424h36.8v7.7H270.5z M313.5,451.7v17.5h-8.7v-17.5L288.4,424h9.5l11.7,19.7l11.7-19.7h9.1L313.5,451.7z M-22.1,511.5h-10.2
	v16.4h-8.4v-45.2h19c10.9,0,16.8,5.8,16.8,14.6C-5,505.6-10.8,511.5-22.1,511.5z M-22.5,489.6h-9.8v14.6h9.8c5.8,0,8.4-2.9,8.4-7.3
	C-13.7,492.5-16.6,489.6-22.5,489.6z M30.7,523.5c-3.6,3.3-8.7,5.1-13.8,5.1S6.7,526.8,3,523.5c-5.1-5.1-6.2-10.9-6.2-18.2
	c0-7.3,0.7-13.5,6.2-18.6c3.6-3.3,8.7-5.1,13.8-5.1s10.2,1.8,13.8,5.1c5.1,5.1,6.2,10.9,6.2,18.6C36.6,512.6,35.8,518.4,30.7,523.5z
	 M24.2,491.8c-1.8-1.8-4.7-2.9-7.7-2.9c-2.9,0-5.8,1.1-7.7,2.9c-3.3,3.3-3.3,8.7-3.3,13.1c0,4,0,9.8,3.3,13.1
	c1.8,1.8,4.7,2.9,7.7,2.9c2.9,0,5.8-1.1,7.7-2.9c3.3-3.3,3.3-8.7,3.3-13.1C27.8,500.9,27.8,495.1,24.2,491.8z M69,527.5l-8-17.1
	H50.4v17.1h-8.7v-45.2h20c11.3,0,16.8,6.9,16.8,14.2c0,6.2-3.6,10.9-8.7,12.8l8.7,18.6H69V527.5z M62.1,489.6H50.4v13.5h11.7
	c5.1,0,7.7-2.6,7.7-6.6C69.7,492.9,66.8,489.6,62.1,489.6z M104,490v37.5h-8.7V490H81v-7.7h37.2v7.7C118.2,490,104,490,104,490z
	 M153.9,523.5c-3.6,3.3-9.1,4.7-15.3,4.7c-5.1,0-10.6-1.5-14.2-4.7c-2.9-2.6-5.1-6.2-5.1-10.6h8.7c0,2.2,1.1,4.4,2.6,5.5
	c2.2,1.8,5.1,2.6,8,2.6c3.3,0,6.6-0.7,8.4-2.6c1.1-1.1,1.8-2.2,1.8-4.4c0-3.3-2.6-4.7-5.8-5.5c-3.3-0.7-7.3-0.7-10.6-1.1
	c-6.6-1.1-12-5.1-12-12.8c0-3.6,1.8-6.6,4-9.1c3.3-2.9,8.4-4.7,14.2-4.7c5.1,0,10.2,1.5,13.5,4.4c2.9,2.6,4.7,5.8,4.7,9.8h-8.7
	c0-1.5-1.1-3.3-2.2-4.4c-1.5-1.5-4.7-2.6-7.3-2.6s-5.8,0.7-7.7,2.6c-1.1,1.1-1.5,2.2-1.5,4c0,2.9,2.2,4.4,4.7,5.1
	c2.9,0.4,7.3,0.7,10.6,1.1c7.3,1.1,13.1,5.5,13.1,13.1C157.9,518.4,156.1,521.3,153.9,523.5z M203.5,527.5v-32.4l-12.4,31.7h-6.6
	l-12.4-32.1v32.8h-8.4v-45.2h11.7l12.4,32.4l12.8-32.4h11.3v45.2H203.5z M250.9,523.5c-3.6,3.3-8.7,5.1-13.8,5.1s-10.2-1.8-13.8-5.1
	c-5.1-5.1-6.2-10.9-6.2-18.2c0-7.3,0.7-13.5,6.2-18.6c3.6-3.3,8.7-5.1,13.8-5.1s10.2,1.8,13.8,5.1c5.1,5.1,6.2,10.9,6.2,18.6
	C257.1,512.6,256,518.4,250.9,523.5z M244.7,491.8c-1.8-1.8-4.7-2.9-7.7-2.9c-2.9,0-5.8,1.1-7.7,2.9c-3.3,3.3-3.3,8.7-3.3,13.1
	c0,4,0,9.8,3.3,13.1c1.8,1.8,4.7,2.9,7.7,2.9c2.9,0,5.8-1.1,7.7-2.9c3.3-3.3,3.3-8.7,3.3-13.1C247.9,500.9,247.9,495.1,244.7,491.8z
	 M281.1,528.6c-12.4,0-19-7.3-19-18.2v-28.1h8.7V510c0,6.6,3.3,10.9,10.2,10.9c6.9,0,10.2-4.4,10.2-10.9v-27.7h8.7v28.1
	C299.7,520.9,293.5,528.6,281.1,528.6z M327.4,490v37.5h-8.7V490h-14.2v-7.7h37.2v7.7C341.6,490,327.4,490,327.4,490z M374.4,527.5
	v-19.7h-19.7v19.7H346v-45.2h8.7v17.9h19.7v-17.9h8.7v45.2H374.4z M355.8,465.9c-2.6,2.6-6.2,3.6-9.8,3.6s-7.3-1.1-9.8-3.6
	c-3.6-3.6-4.4-8-4.4-13.1c0-5.5,0.7-9.8,4.4-13.5c2.6-2.6,6.2-3.6,9.8-3.6s7.3,1.1,9.8,3.6c3.6,3.6,4.4,8,4.4,13.5
	C360.2,458.3,359.5,462.6,355.8,465.9z M351.4,443.3c-1.5-1.5-3.6-2.2-5.5-2.2c-1.8,0-4,0.7-5.5,2.2c-2.6,2.2-2.6,6.6-2.6,9.5
	s0,6.9,2.6,9.5c1.5,1.5,3.6,2.2,5.5,2.2c2.2,0,4-0.7,5.5-2.2c2.6-2.2,2.6-6.6,2.6-9.5C354,449.9,353.6,445.9,351.4,443.3z
	 M370.4,441.9v8.7h15.7v5.5h-15.7v13.1h-6.2v-32.8h24.1v5.5H370.4z"/>
</svg>
