<svg xmlns="http://www.w3.org/2000/svg" xmlns:xlink="http://www.w3.org/1999/xlink" viewBox="0 0 16000 16000"><defs><linearGradient id="a" x1="2312.80306" y1="977.08451" x2="-765.46893" y2="1030.81594" gradientUnits="userSpaceOnUse"><stop offset="0" stop-color="#482c15"/><stop offset="0.1" stop-color="#a7722a"/><stop offset="0.15" stop-color="#fff"/><stop offset="0.22" stop-color="#da9f43"/><stop offset="0.34" stop-color="#8f5a24"/><stop offset="0.5" stop-color="#d8a74d"/><stop offset="0.66" stop-color="#f5e380"/><stop offset="0.72" stop-color="#dac163"/><stop offset="0.77" stop-color="#fff"/><stop offset="0.83" stop-color="#a0752b"/><stop offset="1" stop-color="#664319"/></linearGradient><linearGradient id="b" x1="-159.02714" y1="-381.26989" x2="1696.86943" y2="1830.50152" gradientUnits="userSpaceOnUse"><stop offset="0" stop-color="#fbf6b4"/><stop offset="0.22" stop-color="#da9f43"/><stop offset="0.38" stop-color="#e8c476"/><stop offset="0.5" stop-color="#d8a74d"/><stop offset="0.66" stop-color="#f5e380"/><stop offset="0.72" stop-color="#dac163"/><stop offset="1" stop-color="#fbf6b4"/></linearGradient><linearGradient id="c" x1="960.51222" y1="2130.53027" x2="1039.47003" y2="-130.52549" gradientUnits="userSpaceOnUse"><stop offset="0" stop-color="#dca83d"/><stop offset="0.16" stop-color="#d99e3a"/><stop offset="0.3" stop-color="#a46c29"/><stop offset="0.49" stop-color="#8f5824"/><stop offset="0.54" stop-color="#f3f3ba"/><stop offset="0.56" stop-color="#f6ec99"/><stop offset="0.69" stop-color="#d6b767"/><stop offset="0.75" stop-color="#a77029"/><stop offset="0.85" stop-color="#d1ac5c"/><stop offset="1" stop-color="#e0c77d"/></linearGradient><linearGradient id="d" x1="1815.03132" y1="985.77284" x2="184.9777" y2="1014.22554" xlink:href="#a"/><linearGradient id="e" x1="1628.39866" y1="889.19427" x2="370.97595" y2="1110.91183" xlink:href="#a"/><linearGradient id="f" x1="1316.48287" y1="1506.49131" x2="682.83484" y2="492.44249" xlink:href="#a"/><radialGradient id="g" cx="999.99037" cy="999.99932" r="597.85019" gradientUnits="userSpaceOnUse"><stop offset="0" stop-color="#976f42"/><stop offset="0.13148" stop-color="#8c673d"/><stop offset="0.36511" stop-color="#6d5030"/><stop offset="0.67365" stop-color="#3c2c1b"/><stop offset="1" stop-color="#010101"/></radialGradient><linearGradient id="h" x1="791.75217" y1="998.664" x2="1201.19185" y2="998.664" gradientUnits="userSpaceOnUse"><stop offset="0" stop-color="#dfae46"/><stop offset="0.42724" stop-color="#fbf4a4"/><stop offset="0.87335" stop-color="#d4a33c"/></linearGradient><linearGradient id="i" x1="790.75217" y1="998.664" x2="1202.19185" y2="998.664" gradientUnits="userSpaceOnUse"><stop offset="0.00121" stop-color="#966a28"/><stop offset="0.30301" stop-color="#fbf5ae"/><stop offset="1" stop-color="#cfa142"/></linearGradient><linearGradient id="j" x1="591.04384" y1="998.664" x2="1401.9002" y2="998.664" xlink:href="#h"/><linearGradient id="k" x1="590.62794" y1="998.47528" x2="1403.48431" y2="998.47528" xlink:href="#i"/><linearGradient id="l" x1="602.56983" y1="986.14976" x2="1365.46987" y2="986.14976" xlink:href="#i"/><linearGradient id="m" x1="591.11164" y1="998.66401" x2="1401.83238" y2="998.66401" xlink:href="#h"/><linearGradient id="n" x1="590.11164" y1="998.66401" x2="1402.83238" y2="998.66401" xlink:href="#i"/><linearGradient id="o" x1="618.94639" y1="904.98072" x2="672.99444" y2="904.98072" gradientTransform="translate(6085.02095 6746.48522) rotate(-30)" xlink:href="#h"/><linearGradient id="p" x1="618.44639" y1="904.98072" x2="673.49444" y2="904.98072" gradientTransform="translate(6085.02095 6746.48522) rotate(-30)" xlink:href="#i"/><linearGradient id="q" x1="853.87524" y1="1360.42562" x2="907.92329" y2="1360.42562" gradientTransform="translate(6110.46731 6597.35296) rotate(-15.98068)" xlink:href="#h"/><linearGradient id="r" x1="853.37524" y1="1360.42562" x2="908.42329" y2="1360.42562" gradientTransform="translate(6110.46731 6597.35296) rotate(-15.98068)" xlink:href="#i"/><linearGradient id="s" x1="1337.44585" y1="874.71382" x2="1391.49389" y2="874.71382" gradientTransform="translate(7136.78379 5705.12317) rotate(32.58353)" xlink:href="#h"/><linearGradient id="t" x1="1336.94585" y1="874.71382" x2="1391.99389" y2="874.71382" gradientTransform="translate(7136.78379 5705.12317) rotate(32.58353)" xlink:href="#i"/><linearGradient id="u" x1="7391.97284" y1="7298.53184" x2="7511.97284" y2="7298.53184" xlink:href="#h"/><linearGradient id="v" x1="7389.47284" y1="7298.53184" x2="7514.47284" y2="7298.53184" xlink:href="#i"/></defs><path d="M1958.811,958.3295c23.031,529.51307-387.56524,977.46252-917.13635,1000.49532C512.15189,1981.85562,64.21979,1571.24024,41.189,1041.68848,18.15819,512.154,428.7639,64.20462,958.306,41.17381,1487.84808,18.16042,1935.79952,428.77774,1958.811,958.3295Z" transform="translate(6450.96769 6302.25559)" fill-rule="evenodd" fill="url(#a)"/><path d="M1942.07185,959.04728c22.63419,520.29417-380.82083,960.4023-901.13434,983.03648-520.27482,22.61678-960.38295-380.82083-983.0094-901.11306C35.3036,520.65718,438.749,80.54906,959.03344,57.91294,1479.347,35.31744,1919.45508,438.75311,1942.07185,959.04728Z" transform="translate(6450.96769 6302.25559)" fill-rule="evenodd" fill="url(#b)"/><path d="M1393.51349,168.82015c459.03927,217.334,654.98683,765.64663,437.65313,1224.70525-217.334,459.04121-765.64861,654.98683-1224.68788,437.653C147.42786,1613.84451-48.51777,1065.53186,168.81609,606.4712,386.15007,147.432,934.47228-48.5136,1393.51349,168.82015Z" transform="translate(6450.96769 6302.25559)" fill-rule="evenodd" fill="url(#c)"/><path d="M1599.32227,395.166h.01741l-.01741.03676C1766.284,560.6554,1850.41878,778.15952,1851.419,996.06024c1.02153,217.91815-81.11083,436.19808-246.58089,603.21783v.03676l-.01934.01935v-.01935c-165.46991,166.983-382.97417,251.11585-600.8749,252.118-217.9104,1.00024-436.21742-81.11084-603.23717-246.60024C233.70631,1439.38,149.58119,1221.83912,148.581,1003.9383c-1.01186-217.90064,81.10116-436.198,246.59056-603.21774v-.07545l.01935.03676C560.65123,233.7008,778.15535,149.566,996.05608,148.56577c217.89105-1.00218,436.18839,81.11083,603.20815,246.60023Zm-17.51494,17.5517h0l-.01935-.01934h0l.01935-.03676C1419.64176,252.009,1207.71156,172.295,996.16055,173.27784c-211.56261.96348-422.7557,82.67988-583.45669,244.86286v.05611l-.02708-.01935C252.02415,580.343,172.29277,792.27323,173.2756,1003.84359c.97316,211.55294,82.68774,422.76537,244.8706,583.45475,162.17331,160.6719,374.12287,240.4227,585.68548,239.42052,211.551-.96348,422.76344-82.678,583.4741-244.88027v-.05611l.03676.03676c160.63327-162.16363,240.34725-374.09384,239.38376-585.66613-.98283-211.551-82.69908-422.74409-244.88221-583.43541Z" transform="translate(6450.96769 6302.25559)" fill-rule="evenodd" fill="url(#d)"/><path d="M335.71826,1244.6416a34.42659,34.42659,0,1,1-18.40869,18.86035A33.13411,33.13411,0,0,1,335.71826,1244.6416Z" transform="translate(6450.96769 6302.25559)" stroke="#000" stroke-miterlimit="10"/><path d="M216.187,1049.916a18.93679,18.93679,0,0,0-8.18213-4.05469q-3.39551-.7251-3.62256-2.77051a3.79408,3.79408,0,0,1,1.08887-2.60644q4.801-1.5,19.46436-4.9336l25.26562-6.13476q2.45289-.2754,2.78809,2.7246.18384,1.63625-2.40625,3.168a74.94959,74.94959,0,0,0-27.33057,24.72364q-10.14111,15.49073-8.26953,32.25683,1.8435,16.49854,12.73145,23.77051,10.88817,7.27295,22.06738,6.02441,13.63549-1.522,19.83984-11.46386,6.20729-9.939,12.15869-39.45508,4.199-21.72363,9.169-32.8418a52.55524,52.55524,0,0,1,15.22266-19.43652,43.38809,43.38809,0,0,1,22.92919-9.73828q21.54494-2.40528,40.57813,13.55078,19.03712,15.95948,21.92773,41.86133,2.60376,23.31152-9.35009,48.52734a17.33273,17.33273,0,0,0,9.66845,4.99512q4.48242.605,4.75782,3.05566.24389,2.18409-5.23926,3.76074-5.48218,1.57911-52.45606,9.86036-1.69775-.36036-1.95605-2.67969-.22705-2.04492,2.63428-3.60742,50.41626-26.88429,46.21435-64.51563-2.08593-18.67675-14.51269-27.9873-12.42774-9.30909-27.01563-7.68164a32.87638,32.87638,0,0,0-17.90967,7.72851,42.856,42.856,0,0,0-11.95849,16.51953q-4.136,9.91846-8.292,30.81055-5.42284,26.833-11.812,37.001a47.16783,47.16783,0,0,1-15.23828,15.57422,42.80488,42.80488,0,0,1-17.57715,6.3789q-18.1311,2.02441-34.01025-12.835-15.87378-14.8579-18.541-38.71777a68.30616,68.30616,0,0,1,.75537-19.20313A104.78385,104.78385,0,0,1,216.187,1049.916Z" transform="translate(6450.96769 6302.25559)" stroke="#000" stroke-miterlimit="10"/><path d="M209.63721,888.77637l.92334-6.27344q33.31055-10.58277,112.42285-26.18506,50.71069-10.09936,62.57666-14.88525,11.86743-4.78712,15.1709-18.75977,1.0664-4.42823,3.6455-4.05029,1.89992.27978,1.56153,2.5874l-.41651,1.87988q-2.92381,12.32813-5.75732,31.59912-4.355,29.58912-4.644,38.14112-.61743,4.20849-3.061,3.84765-1.76294-.25928-1.7124-3.44043.61377-11.69384-1.58936-16.52685-2.20018-4.82739-8.30859-5.729-5.833-.85767-30.39648,3.97216l-24.52,4.562q-1.03931,7.05836-8.47266,63.23145,35.51441,19.66846,45.33691,21.11328,8.32106,1.22535,13.37452-5.17236a31.65582,31.65582,0,0,0,6.46-13.12354q1.13525-4.96,3.77685-4.57422,1.06054.15675,1.74317,1.92041-4.14624,21.57642-4.80371,26.0542-3.35523,22.801-3.9712,30.75293-.6394,4.34473-3.08154,3.9834-2.17017-.31934-2.15576-4.19971.2622-15.90453-17.65723-27.00195-17.9187-11.09326-65.01269-35.93017Q248.23389,913.88769,209.63721,888.77637Zm28.79,9.76758q23.92749,16.43555,70.57763,40.51757,1.37916-14.07641,2.27735-20.18652l6.291-38.03906q-14.85278,2.9392-39.53369,8.583Q248.58373,896.43994,238.42725,898.544Z" transform="translate(6450.96769 6302.25559)" stroke="#000" stroke-miterlimit="10"/><path d="M345.98779,730.91064l30.71826,14.30811q32.3877,14.61035,36.65235,15.33008a23.279,23.279,0,0,0,9.82373-.75977q5.55981-1.47876,10.92285-11.70312,2.78907-5.51367,5.28906-4.38574,2.75025,1.24.94532,5.24218-.6753,1.50074-4.17774,7.59571-7.11914,12.44238-11.63037,22.44531-3.83643,8.50488-9.75244,24.04394l-2.81738,7.15674q-1.80617,4.00269-4.30567,2.87354-2.50049-1.12794.14942-7.00586,3.61009-8.00025.6875-13.53516-2.92017-5.52978-20.88575-14.915-17.96631-9.38085-48.227-23.03418-28.511-12.86059-45.40576-19.27832-16.89258-6.41454-22.84082-6.91748-5.9436-.49731-9.76855,2.14014-3.82251,2.64111-9.01758,12.48584-2.04931,3.89355-4.24024,2.90283-1.946-.87744-.61328-4.48975,11.603-32.38768,50.80567-119.29834,6.71191-14.87988,7.74218-15.99609a3.34775,3.34775,0,0,1,2.47168-1.14258q1.44434-.02637,18.84278,4.437,17.40087,4.46265,18.15039,4.80127,2.62645,1.18506,1.61816,3.41993-.72876,1.61425-3.90137,1.97412-38.59277,3.82178-56.48242,43.47754a180.82725,180.82725,0,0,0-8.773,22.61572q-2.61987,8.981-1.5542,11.11816Q277.48,698.95605,291.29,705.71q13.80615,6.75732,48.6958,22.49316,4.9607-9.65917,6.6543-13.416,8.12915-18.022,3.6289-28.5625-4.50293-10.53882-12.584-14.63867-5.39062-2.72754-4.21485-5.33838,1.23341-2.7312,4.98389-1.03955a24.53583,24.53583,0,0,1,3.00147,1.688q6.81372,4.24584,36.70019,17.72656l14.50488,6.54346q5.25294,2.36865,3.85206,5.47363-1.177,2.60816-5.10938.98486-11.42432-4.70142-21.65478-1.20654-10.22827,3.498-19.18165,23.34082Q349.10279,723.00709,345.98779,730.91064Z" transform="translate(6450.96769 6302.25559)" stroke="#000" stroke-miterlimit="10"/><path d="M433.36523,440.05029q14.3379,6.80787,38.05713,21.63916a1.83743,1.83743,0,0,1-.09912,1.8291,3.03955,3.03955,0,0,1-2.14551.854q-17.7561-2.50488-29.40869-.9751a55.60849,55.60849,0,0,0-19.82324,6.05859q-8.1687,4.53076-21.82178,20.84961-12.862,15.375-18.561,25.8169.345,1.72192,3.18164,4.09424.73535.616,2.45019,2.40722,7.52418,8.083,44.70411,39.18262,1.57544,1.31837,4.58691,3.47949,7.00927-7.73877,9.47559-10.688,11.09911-13.26708,12.11523-22.53369,1.0122-9.26367-8.396-24.65332-1.60912-2.58692-.47265-3.94433,1.65747-1.98341,4.71631.57519l3.86572,3.94824a222.24711,222.24711,0,0,0,16.48,15.21582q14.33715,11.99415,26.27,21.08106,3.58521,2.99926,1.96924,4.92773-1.18945,1.42383-4.13965-.18164-14.27051-8.16576-25.66113-5.6709-11.38623,2.49756-31.16993,26.14649,7.415,6.74487,24.56641,21.08984,22.2019,18.572,29.52051,22.00977,7.31689,3.43872,15.86377.38476,8.5481-3.05273,20.52344-17.37255,34.259-40.95777,16.01367-76.44483-2.25513-4.36011-.94971-5.92187,1.39454-1.66407,3.7085.2705a10.69694,10.69694,0,0,1,2.29589,2.81446q1.47144,2.30566,12.38916,15.55029,2.29616,2.81763,13.06934,17.729l-36.9834,44.001q-7.92261,9.46949-24.07031,27.1709-16.14845,17.70264-28.03809,31.81055Q475.55616,666.71,474.50244,666.89941a1.96077,1.96077,0,0,1-1.68652-.33691q-2.10352-1.75928.80176-5.23242,9.7683-11.67919,6.64648-20.55127-3.12231-8.87037-27.09424-28.92334l-21.64258-17.92383L411.606,576.72949q-6.09669-5.09912-23.64991-18.61865-17.55249-13.51832-20.45459-14.96338a12.53457,12.53457,0,0,0-7.51074-.73975q-4.60986.70533-14.68652,7.83545-3.0249,2.12256-4.60352.79981-1.89477-1.58423,1.18653-5.2666L361.001,525.2793q10.0327-10.92408,47.26269-55.43409Q432.731,440.59449,433.36523,440.05029Z" transform="translate(6450.96769 6302.25559)" stroke="#000" stroke-miterlimit="10"/><path d="M555.32324,349.05469q-9.252,5.417-12.9248,7.82422Q517.60523,373.1438,513.273,390.80762q-4.33521,17.66309-.88379,26.92627,1.31909,3.25268-1.1875,4.896a3.52961,3.52961,0,0,1-2.88965.31446q-8.39282-14.03907-19.71-39.79395,5.43091-3.7251,6.9209-4.70557,8.94581-5.86962,24.57373-14.81,16.77539-9.69141,50.15234-31.5918,34.17774-22.4253,43.97657-30.001,8.8015-7.08691,25.20459-17.8501a181.9221,181.9221,0,0,1,13.123,16.001q7.388,9.75952,10.78418,13.43457a19.58139,19.58139,0,0,1,1.394,1.87451q1.80615,2.75244-.58838,4.32422a3.9587,3.9587,0,0,1-3.09229.63281,64.86433,64.86433,0,0,1-8.66211-3.58593q-12.06372-5.376-21.61328-5.91895a39.94014,39.94014,0,0,0-18.37256,3.27637q-8.82129,3.81885-33.22265,19.17187,9.9873,18.22266,24.58642,40.47461,48.31128,73.63623,60.12012,84.75684,11.80811,11.12256,31.19336-1.59668,4.70069-3.085,5.98193-1.13574,1.50586,2.29614-2.96924,5.229l-70.53955,46.28076q-2.75244,1.80615-4.18261-.37353-1.42823-2.17749,3.96093-5.71631,9.06006-5.94286,11.27637-14.69824,2.21339-8.75244-2.64551-18.03516-4.85742-9.28052-32.17578-50.918Q580.45972,382.116,555.32324,349.05469Z" transform="translate(6450.96769 6302.25559)" stroke="#000" stroke-miterlimit="10"/><path d="M811.813,315.03271q5.04053-10.29125,14.01855-35.98388,8.97657-25.69043,10.1875-31.67383,1.20924-5.98242.34131-9.01758-1.5498-5.40526-7.94873-7.06933a22.57627,22.57627,0,0,0-12.06885-.03711q-4.48315,1.28613-5.16357-1.08838-.71778-2.50416,6.79883-4.65967l49.71533-14.24854q6.8562-1.96507,7.65137.8042.6438,2.24415-2.39063,3.11133a34.65641,34.65641,0,0,0-13.94775,7.84961q-6.167,5.62134-12.8999,20.96436L832.043,281.55029q-11.11451,29.4441-11.35449,34.07813-.33326,6.80493,7.30127,33.44092,10.12793,35.343,14.98535,41.085,4.85669,5.74658,21.49267,2.5459,4.33228-.81373,4.97608,1.42773.75585,2.63966-3.86817,3.9624L829.814,407.4834q-12.81591,3.67236-20.855,6.54736-6.45628,2.41919-8.30468,2.95166-5.01928,1.43849-5.77491-1.19922-.60424-2.10791,3.06983-3.30615,12.575-4.17261,14.24756-14.3584,1.67066-10.1814-3.35449-27.72217-5.51808-19.25244-11.29249-30.4414-1.39746-2.87988-17.52-18.311-16.125-15.427-38.19434-33.43506-22.06934-18.00293-30.19434-20.95752-8.12475-2.95018-14.606-1.66552-4.85963.96533-5.50342-1.27637a1.9182,1.9182,0,0,1,.70508-2.27148q1.11987-.81959,7.31884-2.59668l57.62842-16.51563q5.93409-1.70068,7.23487-1.64551,1.30077.05567,1.791,1.76953.60572,2.11231-2.61621,3.31885-16.23707,6.0813-13.74414,14.78467,1.28613,4.48463,10.11133,12.37109Q768.78442,281.41554,811.813,315.03271Z" transform="translate(6450.96769 6302.25559)" stroke="#000" stroke-miterlimit="10"/><path d="M1105.88477,220.08789a18.94945,18.94945,0,0,0,5.61132-7.20557q1.38868-3.17943,3.43848-2.99462a3.797,3.797,0,0,1,2.33594,1.58935q.50831,5.00465.93847,20.05811l.95411,25.98144q-.22413,2.45948-3.22852,2.187-1.64209-.14868-2.62207-2.9917a74.961,74.961,0,0,0-18.75293-31.72656q-13.147-13.03491-29.94922-14.5581-16.53222-1.49707-25.83789,7.71533-9.30468,9.21387-10.31934,20.416-1.23631,13.6626,7.26075,21.73243,8.49609,8.07129,36.22363,19.80957,20.44482,8.4624,30.34082,15.55664a52.54553,52.54553,0,0,1,15.99707,18.80468,43.396,43.396,0,0,1,4.95215,24.416q-1.95557,21.58887-21.39844,37.04395-19.44726,15.45776-45.40332,13.10546-23.36279-2.11523-45.67383-18.874a17.32723,17.32723,0,0,0-6.8291,8.47266q-1.48829,4.27221-3.94678,4.05029-2.18847-.19848-2.63476-5.88574-.45117-5.68872.83887-53.36865.6914-1.59082,3.01611-1.37989,2.04932.186,3.00781,3.30274,16.24951,54.77782,53.959,58.19287,18.71484,1.69408,30.32519-8.61768,11.60889-10.3125,12.9336-24.93066a32.84974,32.84974,0,0,0-3.98829-19.09473,42.84238,42.84238,0,0,0-13.79-15.02295q-8.88867-6.03735-28.52636-14.2915-25.20556-10.68311-33.88867-18.97754a47.15267,47.15267,0,0,1-12.209-18.04883,42.82259,42.82259,0,0,1-2.7334-18.49805q1.645-18.16845,19.38282-30.75195,17.73779-12.57934,41.64648-10.416a68.26771,68.26771,0,0,1,18.66211,4.582A104.85144,104.85144,0,0,1,1105.88477,220.08789Z" transform="translate(6450.96769 6302.25559)" stroke="#000" stroke-miterlimit="10"/><path d="M1317.76172,280.11475q9.34863-3.843,11.16113-5.68116,2.38184-2.65356,4.84375-1.79052,2.58839.9082,1.21387,5.65918l-12.99414,46.17822a20.256,20.256,0,0,1-1.98145,4.61133q-.61816.72948-2.1709.1831-2.07275-.72582-2.44921-7.10986-1.30957-23.63086-11.97266-42.13965-10.82226-18.47607-28.81445-24.78613a49.26235,49.26235,0,0,0-32.56153-.00586q-16.76806,5.53344-30.68652,21.80273a117.38557,117.38557,0,0,0-21.499,37.88965q-12.8921,36.76685-.68555,66.84815,12.20654,30.08568,37.20117,38.84814a53.705,53.705,0,0,0,34.97461.19775q18.00732-5.75023,30.21094-17.31738,3.30322-3.20287,5.374-2.47656,2.84766.9983,1.75879,4.10547-1.31689,3.75585-15.60547,12.98974a77.20339,77.20339,0,0,1-33.04883,11.52539,81.17207,81.17207,0,0,1-37.1455-4.15722,89.13431,89.13431,0,0,1-57.46582-66.66992q-4.5879-23.41334,4.584-49.5625,8.98681-25.63184,27.2832-42.33008a83.79555,83.79555,0,0,1,42.374-21.04883q24.07617-4.34766,45.458,3.14746a86.1677,86.1677,0,0,1,22.07422,11.73779A119.46909,119.46909,0,0,1,1317.76172,280.11475Z" transform="translate(6450.96769 6302.25559)" stroke="#000" stroke-miterlimit="10"/><path d="M1390.33105,304.10059l20.98633,13.61962L1444.2207,337.419q5.84473,3.61376,4.40235,5.94824-1.08252,1.74975-4.52149.26855-13.96-6.37206-21.93066-.65722-7.97315,5.71654-38.41309,54.957-11.18408,18.08715-24.24511,41.29834-13.06349,23.21411-14.63672,28.36865a16.38323,16.38323,0,0,0-.03907,9.97558q1.53516,4.81935,9.6836,11.47022,2.69824,2.15186,1.5459,4.021-1.29931,2.09911-3.98926.43652l-28.84766-18.15918-24.88281-14.90088q-4.09131-2.529-2.64941-4.86279,1.51611-2.45068,4.7832-.43067,10.99365,6.47681,17.19043.62891,6.19335-5.84766,29.49707-43.53418,22.50732-36.4043,35.79-59.3208,13.27734-22.91529,13.23242-29.88135-.0498-6.96387-8.00488-13.65918-2.90919-2.603-1.6084-4.70312Q1387.875,302.582,1390.33105,304.10059Z" transform="translate(6450.96769 6302.25559)" stroke="#000" stroke-miterlimit="10"/><path d="M1600.14062,476.3584q-7.89843,13.76733-24.52246,36.2666a1.837,1.837,0,0,1-1.8164-.24023,3.04393,3.04393,0,0,1-.68457-2.20508q3.873-17.51,3.249-29.24512a55.60146,55.60146,0,0,0-4.50586-20.2334q-3.8833-8.49609-19.09668-23.37109-14.332-14.012-24.30078-20.50391-1.74464.21094-4.3291,2.85449-.66944.68556-2.58984,2.25586-8.63965,6.87525-42.52637,41.53614-1.437,1.4685-3.8252,4.30371,7.17482,7.58789,9.92188,10.27539,12.36913,12.09228,21.52929,13.82324,9.15675,1.72705,25.22852-6.46094,2.7041-1.404,3.96973-.1665,1.84863,1.80688-.93848,4.6582l-4.23633,3.54736a222.779,222.779,0,0,0-16.44629,15.252q-13.06786,13.36669-23.05175,24.55957-3.26953,3.34276-5.06543,1.582-1.32715-1.29639.501-4.11328,9.24756-13.59667,7.64063-25.14453-1.60694-11.54591-23.65332-33.10254-7.29786,6.87158-22.92871,22.85937-20.23536,20.69972-24.23047,27.72754-3.99611,7.02906-1.61231,15.78614,2.38184,8.75976,15.73145,21.80761,38.18115,37.32934,74.97461,21.88477,4.522-1.91016,5.97851-.48633,1.55127,1.51758-.55761,3.67578a10.67277,10.67277,0,0,1-2.98438,2.0708q-2.4126,1.28833-16.46289,11.14746-2.98681,2.07056-18.6875,11.65821l-41.00391-40.28077q-8.83007-8.63232-25.22558-26.10156-16.4004-17.47266-29.54395-30.41894-13.1455-12.94776-13.25293-14.01368a1.96157,1.96157,0,0,1,.46582-1.6538q1.91748-1.96143,5.15528,1.20263,10.88672,10.64576,19.97461,8.21875,9.08642-2.42578,30.93359-24.77246l19.54687-20.18847,18.69336-18.53077q5.5547-5.68286,20.39551-22.13623,14.83447-16.45312,16.50293-19.23437a12.54493,12.54493,0,0,0,1.31738-7.43164q-.34716-4.65089-6.6748-15.249-1.88087-3.18016-.43945-4.65136,1.72558-1.76514,5.1582,1.59082l18.95605,20.64355q10.11183,10.84863,51.60645,51.41358Q1599.646,475.68408,1600.14062,476.3584Z" transform="translate(6450.96769 6302.25559)" stroke="#000" stroke-miterlimit="10"/><path d="M1672.875,573.34424q-6.03076,12.44385-17.28613,41.24316l-24.75293,62.48682-23.69141,60.07422q22.63477-10.29273,57.76758-28.667,26.37744-13.79738,34.74121-19.56446a25.98521,25.98521,0,0,0,10.7832-15.93554q2.42139-10.17042-3.04492-20.62256-2.543-4.864-.47656-5.94385a2.09059,2.09059,0,0,1,2.30273.11133q1.08546.74634,9.64551,15.77783,8.55762,15.03,14.02637,25.48389l8.46484,16.47168,1.39844,2.67382q1.97167,3.76758-.15918,4.88379-1.894.99024-3.96582-2.10547-7.76075-11.57958-15.63672-14.3457-7.87939-2.77-17.9082,1.16113-10.03125,3.92871-64.40821,32.37207l-64.85937,32.40235q-4.86474,2.54663-6.11621.15429a4.49717,4.49717,0,0,1-.33106-1.96484q-.00732-1.34253,6.57422-17.32422,6.58008-15.98,15.457-38.96924,8.8755-22.98852,14.76368-36.59521,12.52441-29.6206,15.15429-37.03125,9.498-27.416,13.19532-33.375,2.5664-3.97559,1.67578-5.67578-.7002-1.33961-5.43946,1.14209l-18.71484,10.09863q-35.8623,18.75659-56.23633,31.89111-20.38036,13.13453-22.97265,17.20166-2.5957,4.06567-3.59668,11.32471a21.47547,21.47547,0,0,0,2.11328,13.21582q4.19678,8.02294,1.27929,9.54883-2.187,1.144-4.541-3.353l-30.46094-58.5332q-2.16211-4.13453-.09473-5.21387,2.42871-1.27076,4.52832,2.73975,7.8208,14.95166,17.05274,16.4707,9.23,1.51831,30.748-9.73535L1591.99609,604q37.81788-19.7439,43.48536-25.33984,5.66308-5.59717,11.54492-17.88233,5.88135-12.28931,2.26562-22.16162-1.67871-4.3872.02539-5.27734,2.30861-1.207,5.10742,4.14013Z" transform="translate(6450.96769 6302.25559)" stroke="#000" stroke-miterlimit="10"/><path d="M1779.6123,902.53027q8.0962,6.05421,10.60254,6.665,3.501.68409,4.02246,3.23877.55078,2.68727-4.23437,3.9458l-46.30176,12.542a20.31929,20.31929,0,0,1-4.97558.667q-.94336-.15821-1.27149-1.77149-.44091-2.15038,4.8457-5.75,19.61133-13.24878,30.02637-31.89843,10.30518-18.77052,6.48828-37.4502a49.255,49.255,0,0,0-16.70312-27.95117q-13.35352-11.55249-34.46-15.15039a117.36506,117.36506,0,0,0-43.55176.98828q-38.17236,7.80029-57.72852,33.71338-19.56006,25.91527-14.25586,51.86377a53.711,53.711,0,0,0,17.77637,30.12011q14.1753,12.50831,30.36621,17.04493,4.44434,1.19238,4.88281,3.34179.60645,2.95533-2.62109,3.61719-3.89941.79614-19.15723-6.72949a77.23145,77.23145,0,0,1-26.85058-22.45264,81.18076,81.18076,0,0,1-15.49121-34.01611,89.14086,89.14086,0,0,1,27.73535-83.53418q17.74365-15.95142,44.89355-21.49707,26.61181-5.4375,50.333,1.69726a83.80493,83.80493,0,0,1,39.8086,25.57032q16.0869,18.43506,20.625,40.63183a86.19348,86.19348,0,0,1,1.251,24.96924A119.43181,119.43181,0,0,1,1779.6123,902.53027Z" transform="translate(6450.96769 6302.25559)" stroke="#000" stroke-miterlimit="10"/><path d="M1785.44727,1122.56445q-15.6255,2.792-43.54688,4.50489-1.04444-.75147-.98242-1.5459a3.0412,3.0412,0,0,1,1.249-1.94141q15.9082-8.28076,24.501-16.29687a55.59829,55.59829,0,0,0,12.61133-16.4502q4.01807-8.43457,5.64453-29.64941,1.53077-19.98487.10156-31.79493-1.2832-1.20262-4.96875-1.48437-.95654-.07325-3.39258-.53516-10.81934-2.20605-59.15136-5.90918-2.04639-.15673-5.75391-.166-1.20851,10.37109-1.502,14.2041-1.32129,17.24853,3.23632,25.37891,4.55861,8.127,21.15918,15.18457,2.8125,1.17041,2.67676,2.93554-.19774,2.57667-4.17285,2.27246l-5.43945-.96679a222.37613,222.37613,0,0,0-22.25391-2.80664q-18.63867-1.42675-33.62988-1.88867-4.6626-.35744-4.4668-2.86622.14063-1.85009,3.47559-2.25781,16.35644-1.64794,24.17675-10.29785,7.81641-8.64843,10.17383-39.39258-9.95361-1.17773-32.249-2.88672-28.86181-2.21191-36.81348-.75683-7.95409,1.45313-13.13476,8.90527-5.18115,7.45166-6.60645,26.06543-4.08105,53.24121,31.3916,71.51758,4.3711,2.23681,4.21289,4.26855-.16405,2.16211-3.17382,1.9336a10.69247,10.69247,0,0,1-3.50586-.95606q-2.53419-1.021-19.11719-5.45605-3.50536-.958-20.93945-6.832l4.52832-57.30078q.94335-12.31056,3.79882-36.09961,2.85645-23.792,4.333-42.18165,1.478-18.39256,2.22656-19.16015a1.958,1.958,0,0,1,1.56739-.70508q2.73194.20874,2.38867,4.72315-1.16308,15.18237,6.5332,20.58789,7.69629,5.40453,38.85742,7.79345l28.0293,2.01026,26.209,2.42138q7.9248.60792,30.06543,1.41016,22.13964.80127,25.34277.291a12.53752,12.53752,0,0,0,6.542-3.76368q3.34131-3.252,7.39844-14.91162,1.229-3.48413,3.28125-3.32519,2.46387.18969,2.0957,4.97607l-3.64355,27.78809q-1.81788,14.7202-6.25,72.57812Q1785.647,1121.75391,1785.44727,1122.56445Z" transform="translate(6450.96769 6302.25559)" stroke="#000" stroke-miterlimit="10"/><path d="M1639.29492,1303.4668a34.423,34.423,0,1,1,26.35449.09375A33.129,33.129,0,0,1,1639.29492,1303.4668Z" transform="translate(6450.96769 6302.25559)" stroke="#000" stroke-miterlimit="10"/><path d="M1414.23812,600.9922c220.37716,228.78339,213.55536,592.88453-15.24553,813.25968-228.78348,220.356-592.86519,213.5361-813.24041-15.24738-220.35781-228.78348-213.536-592.8826,15.24758-813.25783C829.77344,365.38886,1193.88224,372.20872,1414.23812,600.9922Z" transform="translate(6450.96769 6302.25559)" fill-rule="evenodd" fill="url(#e)"/><path d="M1504.39953,1216.49158c-119.55935,278.5694-442.3,407.47921-720.87729,287.92179C504.93348,1384.854,376.03153,1062.09388,495.58109,783.50512c119.569-278.56757,442.3195-407.47922,720.89858-287.91986C1495.04714,615.164,1623.959,937.90476,1504.39953,1216.49158Z" transform="translate(6450.96769 6302.25559)" fill-rule="evenodd" fill="url(#f)"/><path d="M999.99528,471.57162c291.03863,0,528.41789,237.3794,528.41789,528.418,0,291.056-237.37926,528.43737-528.41789,528.43737S471.56757,1291.04567,471.56757,999.98964C471.56757,708.951,708.95665,471.57162,999.99528,471.57162Z" transform="translate(6450.96769 6302.25559)" fill-rule="evenodd" fill="url(#g)"/><path d="M513.87549,1374.419l4.00879,4.91113q-14.65429,31.73438-56.49756,100.66308-26.74878,44.25-31.21826,56.23926-4.47144,11.98828,3.61621,23.85156,2.54956,3.77491.53076,5.42383-1.48755,1.21582-2.9624-.59179l-1.10791-1.5752q-7.12866-10.4751-19.44385-25.56543-18.9082-23.17236-25.02783-29.15332-2.68872-3.29736-.7749-4.85547,1.37988-1.12647,3.69482,1.05567,8.22,8.34081,13.273,9.97461,5.04931,1.63036,9.83349-2.27051,4.56958-3.72657,17.56983-25.12012l13.17187-21.17969q-4.51172-5.52686-40.96777-48.90527-38.47559,12.95508-46.167,19.23047-6.5171,5.31738-5.20264,13.36426a31.65177,31.65177,0,0,0,5.33154,13.61914q2.896,4.18506.82911,5.875-.82911.67675-2.59327-.00879-13.13232-17.61476-15.99462-21.1211-14.57007-17.855-20.02588-23.6748-2.77662-3.40137-.86182-4.96094,1.69922-1.38575,4.55371,1.24024,11.56714,10.92188,31.84522,5.17773,20.27635-5.74658,70.37744-23.7627Q469.3042,1385.97559,513.87549,1374.419Zm-26.62988,14.667q-28.2737,6.57861-77.51856,24.77539,9.46362,10.51319,13.36768,15.29687l23.84033,30.30274q7.84716-12.94776,20.32861-34.97559Q481.948,1398.00245,487.24561,1389.08594Z" transform="translate(6450.96769 6302.25559)" fill="#231f20"/><path d="M678.02979,1538.2041q10.05028-1.0957,12.2998-2.35937,3.0249-1.88673,5.15039-.376,2.23463,1.59082-.40527,5.77344L669.77393,1582a20.21741,20.21741,0,0,1-3.18262,3.87988q-.79835.53028-2.1377-.42676-1.78857-1.27294-.37939-7.50976,5.302-23.06689.19482-43.80762-5.269-20.75391-20.80224-31.80957a49.24848,49.24848,0,0,0-31.27979-9.043q-17.6455.66211-35.53271,12.42676a117.394,117.394,0,0,0-31.17139,30.43457q-22.59154,31.74316-19.21338,64.03125,3.3772,32.29248,24.95654,47.64649a53.708,53.708,0,0,0,33.54493,9.89843q18.89795-.52442,33.83056-8.252,4.06275-2.16065,5.85108-.8877,2.45727,1.749.5498,4.43262-2.30785,3.24317-18.59765,8.14844a77.18082,77.18082,0,0,1-34.9502,1.89844,81.15011,81.15011,0,0,1-34.53125-14.30469,89.13437,89.13437,0,0,1-36.70361-80q2.09253-23.76709,18.16113-46.34277,15.74926-22.1294,37.96094-33.09473a83.81144,83.81144,0,0,1,46.55127-8.459q24.33691,2.50633,42.79882,15.6416a86.15078,86.15078,0,0,1,17.94825,17.40332A119.425,119.425,0,0,1,678.02979,1538.2041Z" transform="translate(6450.96769 6302.25559)" fill="#231f20"/><path d="M779.91943,1565.85254l5.97315,2.12695q3.89576,34.73438,3.79443,115.37012.033,51.70752,2.417,64.27734,2.3833,12.57129,15.44629,18.53223,4.13526,1.91016,3.2627,4.36621-.6438,1.80762-2.84131,1.02637l-1.76318-.77246q-11.52319-5.272-29.873-11.80176-28.1748-10.03272-36.50733-11.98047-4.00707-1.42675-3.17822-3.75293.59766-1.67578,3.709-1.00879,11.35107,2.877,16.519,1.65918,5.1643-1.21875,7.23682-7.03418,1.979-5.55468,2.02246-30.58789l.2998-24.93945q-6.7207-2.39357-60.37207-20.62207-26.20752,31.00488-29.53711,40.35742-2.82129,7.9248,2.46973,14.127a31.65624,31.65624,0,0,0,11.61474,8.88965q4.645,2.08155,3.751,4.59668-.35889,1.00927-2.22266,1.33594-20.3562-8.26905-24.62011-9.78516-21.71118-7.73145-29.39063-9.88183-4.1389-1.4751-3.30761-3.79981.73608-2.06543,4.53857-1.2959,15.55,3.353,29.92383-12.0625,14.36938-15.41454,47.90039-56.77246Q747.77393,1598.82032,779.91943,1565.85254Zm-15.18652,26.33789q-20.78028,20.26758-53.48437,61.33691,13.53808,4.09425,19.35644,6.16407l36.08691,13.57714q.00734-15.13916-.72168-40.44726Q764.81886,1602.562,764.73291,1592.19043Z" transform="translate(6450.96769 6302.25559)" fill="#231f20"/><path d="M923.4624,1604.9502l28.25684.67968q53.58471,2.332,79.86474,29.5625,26.27637,27.23438,24.55469,66.84082-1.22168,28.09718-15.28222,48.28711-14.05957,20.18994-34.25391,29.88672-20.1936,9.69581-53.08643,8.26367-7.40186-.32226-18.74121-1.63965-20.21337-2.52685-22.67871-2.63476-44.9546-1.95557-52.94385-1.3418-4.52343-.19482-4.42334-2.49023a2.10424,2.10424,0,0,1,1.7378-2.0625,86.991,86.991,0,0,1,10.21093-1.16114q11.02954-1.03417,15.8003-8.10742,4.76806-7.07519,7.51953-45.02148l5.34912-72.46289a168.60327,168.60327,0,0,0-.6543-24.4209q-1.20483-11.80224-4.68847-15.32129-3.4878-3.51855-11.38135-5.09961-5.72022-1.07226-5.61914-3.40234a2.54624,2.54624,0,0,1,3.00293-2.75293q2.74072.12012,16.73877,1.89551Q906.741,1604.22413,923.4624,1604.9502Zm-10.55469,132.18457q-.78808,18.08936,1.27442,25.93847,2.05957,7.84863,9.72461,13.19238,7.66113,5.34669,25.06836,6.10254,24.9419,1.084,40.94238-10.02832,15.999-11.1123,25.5542-30.333a101.59089,101.59089,0,0,0,10.51562-41.28516,96.06764,96.06764,0,0,0-17.30273-59.93359q-18.72289-27.31349-60.65967-29.13965-18.64014-.81153-21.77636.28906-3.13844,1.09863-3.39991,7.12891-.23217,5.34668-1.78808,19.00879-2.24195,19.95263-3.14063,31.17089l-2.87353,37.63477Q913.0747,1733.29931,912.90771,1737.13477Z" transform="translate(6450.96769 6302.25559)" fill="#231f20"/><path d="M1207.44824,1573.47559q7.68165,13.88964,18.31055,39.76562-.37208,1.23194-1.14551,1.42774a3.03859,3.03859,0,0,1-2.24121-.55567q-12.96972-12.38524-23.32812-17.93359a55.62348,55.62348,0,0,0-19.63965-6.63086q-9.27979-1.08107-29.88477,4.22265-19.41065,4.99659-30.12891,10.16016-.72363,1.59961.19825,5.18164.23877.92726.58789,3.38281,1.40038,10.95411,13.4873,57.89453.5127,1.99073,1.7002,5.502,10.20556-2.20312,13.92871-3.16211,16.752-4.30957,22.97851-11.248,6.2212-6.9375,7.54688-24.92676.20069-3.03954,1.915-3.48144,2.502-.64453,3.49707,3.2168l.83887,5.46093a222.31034,222.31034,0,0,0,4.52343,21.96973q4.65968,18.104,9.05957,32.44141,1.166,4.52783-1.27148,5.15332-1.79736.46142-3.25879-2.56153-6.83643-14.95165-17.5459-19.56347-10.708-4.6084-40.56933,3.07714,2.09764,9.80421,7.67187,31.45606,7.21583,28.03125,11.1582,35.09082,3.9419,7.05762,12.666,9.55859,8.72461,2.502,26.80273-2.15527,51.71191-13.311,57.56836-52.78223.709-4.85742,2.68067-5.36523,2.102-.542,2.85547,2.38086a10.67582,10.67582,0,0,1,.22461,3.625q-.14649,2.73193,1.0039,19.85742.22413,3.62842.28711,22.02344l-55.69824,14.19824q-11.95752,3.07764-35.39649,8.0498-23.44043,4.97022-41.32324,9.50489-17.8872,4.53369-18.85449,4.07422a1.96391,1.96391,0,0,1-1.17285-1.25684q-.68409-2.65576,3.70019-3.78516,14.74659-3.79687,17.37989-12.82519,2.63232-9.02637-5.15723-39.293l-7.13867-27.17969-6.16309-25.58886q-1.98194-7.69776-8.36426-28.915-6.38378-21.21387-7.89941-24.08008a12.52067,12.52067,0,0,0-5.67285-4.97852q-4.15577-2.11377-16.5-2.19336-3.69581-.03808-4.207-2.0332-.61524-2.39062,4.03515-3.58789l27.47657-5.5166q14.51952-3.02784,70.71484-17.4961Q1206.61621,1573.54883,1207.44824,1573.47559Z" transform="translate(6450.96769 6302.25559)" fill="#231f20"/><path d="M1274.61816,1541.86523q28.05323,17.58838,50.66895,30.35938,27.16113,15.2168,43.873,26.10937a322.40493,322.40493,0,0,0,35.43847,19.97657q-1.96435-54.96826-18.71484-149.14356l45.78711-29.749q2.644-1.22022,3.7998.54883,1.15576,1.771-1.44629,3.80664-11.499,8.98682-13.06054,15.498-1.563,6.51417,3.38867,16.22168,4.95117,9.71191,20.166,35.001,15.21387,25.29492,25.94336,41.71289,20.63673,31.585,24.50879,36.50684a14.51663,14.51663,0,0,0,9.34473,5.77539q5.47119.8496,16.36328-4.30176,3.16992-1.41211,4.29688.30762,1.125,1.72264-2.43555,4.04883l-44.74805,29.07324-11.71289,7.65429q-3.90674,2.55177-5.10547.71387-1.05029-1.60839,1.36524-3.67871,8.82129-7.56885,10.47656-11.93066,1.65528-4.36084-.66016-11.292-2.31738-6.93311-17.71191-30.49316l-33.86231-56.59277-16.65039-27.98828q-2.02587-3.10254-2.94726-2.502-1.37988.90381-1.09766,3.3418l6.60156,59.80664q6.31788,57.3706,9.26075,72.668l4.21289,22.01074q1.84716,10.10742,1.64551,11.30664a2.53448,2.53448,0,0,1-1.12012,1.79688q-1.38135.90381-4.251-1.48633-6.72363-5.77149-50.84961-31.38965-24.04248-14.9546-56.02832-33.417-31.98633-18.46-33.9248-18.91309a3.82211,3.82211,0,0,0-2.51172-.083q-1.15137.75294.72558,3.62207l44.20215,70.41016,14.66114,23.19043q11.93115,18.25928,20.60156,20.62012,8.67188,2.36279,17.97363-3.7168,5.96924-3.89942,7.62305-1.375,1.20117,1.83839-1.6709,3.71387l-2.48633,1.46094-7.38965,4.99121-16.26855,10.46582q-10.56593,6.90526-26.46582,18.93261c-1.32031-.01464-2.17871-.32324-2.5791-.9375q-1.5-2.29687,2.44336-5.03808,11.25732-7.8457,11.92578-18.61426.665-10.76953-15.78028-35.93945l-13.44629-20.07813-31.88574-52.31152q-11.71435-17.92823-21.31445-21.084-9.60058-3.15674-20.64844,2.25586-4.73,2.29248-5.89844.50293-1.31543-2.01416,1.89844-4.11718,1.72413-1.125,4.21192-2.58692Z" transform="translate(6450.96769 6302.25559)" fill="#231f20"/><path d="M1553.292,1411.68066q-2.10643-11.26611-10.25683-37.23144-8.15185-25.96435-10.75489-31.48731-2.60448-5.51659-5.11328-7.43359-4.47216-3.41016-10.59765-.91992a22.5747,22.5747,0,0,0-9.7002,7.18066q-2.82861,3.71046-4.792,2.21192-2.06982-1.57911,2.668-7.79883l31.35547-41.12793q4.32274-5.67187,6.61523-3.92676,1.85742,1.415-.05762,3.92285a34.62637,34.62637,0,0,0-6.49414,14.62793q-1.58936,8.19288,2.18067,24.51856l11.165,38.52734q8.6792,30.252,11.25488,34.10938,3.79835,5.65869,25.835,22.45605,29.23828,22.29053,36.56348,23.99316,7.32714,1.70508,18.75586-10.80078,2.98681-3.24023,4.84375-1.82715,2.1826,1.66554-.73438,5.48829l-23.06641,28.89941q-8.08154,10.60107-12.81054,17.709-3.73242,5.79933-4.89746,7.32813-3.16554,4.15282-5.34766,2.49023-1.74316-1.33008.4873-4.48632,7.59082-10.85743,2.84668-20.0254-4.74317-9.16405-19.252-20.22656-15.92724-12.14208-27.24414-17.66406-2.84032-1.47657-24.98926-4.2168-22.147-2.73926-50.60351-3.99218-28.45607-1.251-36.73535,1.23437-8.27637,2.48584-12.70606,7.38965-3.32226,3.67822-5.17676,2.26367a1.916,1.916,0,0,1-.792-2.24121q.41016-1.32569,4.31836-6.45508l36.3457-47.67383q3.74121-4.91015,4.81739-5.64257a2.0128,2.0128,0,0,1,2.49414.3496q1.74609,1.32863-.11524,4.22461-9.38819,14.57813-2.18847,20.06543,3.71044,2.83008,15.499,3.88086Q1498.70117,1410.43017,1553.292,1411.68066Z" transform="translate(6450.96769 6302.25559)" fill="#231f20"/><circle cx="7450.96769" cy="7302.25559" r="500" fill="#fff"/><line x1="7999.51169" x2="7999.51169" y2="16000" fill="none"/><line y1="7995.72215" x2="16000" y2="7995.72215" fill="none"/><path d="M1198.48958,964.54477c-18.20347-267.85695-123.40668-469.72217-234.9779-450.87863S776.251,764.92629,794.45444,1032.78324s123.40668,469.72216,234.9779,450.87863S1216.69306,1232.40172,1198.48958,964.54477Zm-172.89779,507.71754c-102.70545,17.3462-199.83093-172.62817-216.9358-424.31968C791.5511,796.25122,860.9441,578.1531,963.64956,560.8069s199.83093,172.62818,216.9358,424.31964S1128.29723,1454.91612,1025.59179,1472.26231Z" transform="translate(6450.96769 6302.25559)" stroke-miterlimit="10" stroke-width="2" fill="url(#h)" stroke="url(#i)"/><path d="M892.106,1174.96762c216.30851,159.02624,438.38742,209.00859,496.02715,111.6388s-70.9867-305.21981-287.29521-464.246S662.45056,613.35179,604.81084,710.72159,675.79753,1015.94139,892.106,1174.96762ZM615.99587,715.14817c53.0595-89.63253,260.84267-41.15808,464.09673,108.27075,203.254,149.42876,325.01072,343.22629,271.95122,432.85882s-260.84267,41.15809-464.09669-108.27072S562.93639,804.78069,615.99587,715.14817Z" transform="translate(6450.96769 6302.25559)" fill="url(#j)"/><path d="M892.106,1174.96765a1105.84294,1105.84294,0,0,0,118.814,76.309c41.2157,22.76636,84.07386,42.71338,128.57019,58.17456a542.60238,542.60238,0,0,0,67.99012,18.95252c23.04626,4.73181,46.52441,7.686,70.05969,7.61963,5.87817-.09888,11.76135-.24634,17.61658-.78663,2.93432-.189,5.84729-.59362,8.76965-.90136l4.36194-.63135,2.18017-.32068,2.16736-.39648a137.79941,137.79941,0,0,0,33.61414-10.20862c1.31994-.63867,2.67285-1.21179,3.9657-1.90381l3.88342-2.066c2.52344-1.49133,5.05871-2.96838,7.452-4.66333a92.505,92.505,0,0,0,13.4823-11.23377,88.671,88.671,0,0,0,10.90881-13.73132l1.17236-1.85681c.40174-.61243.77783-1.24011,1.1178-1.88916l2.10974-3.85181,1.88855-3.96557c.62915-1.3219,1.12586-2.70288,1.69544-4.05115a103.23683,103.23683,0,0,0,4.986-16.828,131.70358,131.70358,0,0,0,2.22143-17.42981,162.27755,162.27755,0,0,0-.11841-17.58741c-.0913-1.46374-.24145-2.92395-.35925-4.3861l-.188-2.19251-.26172-2.1853-.53442-4.36939-.68371-4.34948a237.53484,237.53484,0,0,0-8.35315-34.19825,324.90911,324.90911,0,0,0-12.56153-32.92517,485.88784,485.88784,0,0,0-33.389-62.07483,690.54823,690.54823,0,0,0-40.69018-57.62133c-28.96289-37.09388-61.14954-71.61261-95.32324-103.955a1146.99978,1146.99978,0,0,0-108.42408-90.29822,1105.97306,1105.97306,0,0,0-118.63732-76.36377c-41.15662-22.78912-83.95606-42.7619-128.38843-58.25207a550.90547,550.90547,0,0,0-67.8711-19.07392c-23.005-4.7865-46.44348-7.798-69.944-7.79382-5.86926.08337-11.74432.215-17.59137.73914-2.9306.18078-5.83935.57733-8.75818.87671l-4.35632.619-2.17767.31433-2.16461.3902a137.56478,137.56478,0,0,0-33.58411,10.10272c-1.31928.634-2.67175,1.2027-3.96417,1.89008l-3.88251,2.05243c-2.52307,1.48224-5.05853,2.95032-7.45251,4.63635a92.37705,92.37705,0,0,0-13.494,11.18329,88.59974,88.59974,0,0,0-10.93543,13.69061l-1.17663,1.85272c-.4032.61109-.78077,1.23743-1.12226,1.88526l-2.11908,3.84485-1.89862,3.95953c-.63263,1.32007-1.13275,2.69934-1.70593,4.04614a103.26095,103.26095,0,0,0-5.03119,16.81781,131.76528,131.76528,0,0,0-2.26861,17.43323,162.41089,162.41089,0,0,0,.072,17.60077c.08758,1.46527.23394,2.92694.348,4.39069l.18243,2.19494.25617,2.18781.52337,4.37475.67279,4.355a237.73917,237.73917,0,0,0,8.27082,34.25232,325.2077,325.2077,0,0,0,12.48663,32.98969,486.33332,486.33332,0,0,0,33.25678,62.221,678.29694,678.29694,0,0,0,40.60058,57.76288c28.95069,37.15686,61.12726,71.7359,95.29492,104.13934A1147.95,1147.95,0,0,0,892.106,1174.96765Zm0,0a1148.02267,1148.02267,0,0,1-108.51911-90.37707c-34.20581-32.37268-66.425-66.92542-95.42462-104.06592A691.83291,691.83291,0,0,1,647.41412,922.819a486.86932,486.86932,0,0,1-33.45794-62.20373,325.87821,325.87821,0,0,1-12.59912-33.02411,238.508,238.508,0,0,1-8.38758-34.34137l-.687-4.37152-.53747-4.39319-.26307-2.19733-.18927-2.20532c-.11853-1.47077-.26934-2.93933-.36126-4.41205a163.271,163.271,0,0,1-.11891-17.70679,132.69508,132.69508,0,0,1,2.24031-17.57489,104.23525,104.23525,0,0,1,5.03564-16.99481c.57538-1.363,1.078-2.75806,1.71381-4.09466l1.90954-4.0091,2.1333-3.89526c.344-.65619.72437-1.291,1.1305-1.91059l1.18566-1.87823a89.67441,89.67441,0,0,1,11.03595-13.89044,93.498,93.498,0,0,1,13.63117-11.35852c2.41894-1.71253,4.9787-3.20465,7.52734-4.71021l3.92-2.08563c1.30523-.69824,2.66931-1.27686,4.00134-1.921a138.7956,138.7956,0,0,1,33.85687-10.28473l2.18018-.39874,2.19214-.32251,4.3858-.63477c2.937-.30957,5.86572-.71594,8.81348-.90594,5.88378-.54273,11.79138-.6911,17.6936-.79016,23.628-.06653,47.16943,2.89788,70.26752,7.63983a543.41628,543.41628,0,0,1,68.1148,18.98773c44.564,15.48468,87.46961,35.455,128.7273,58.24408a1105.76184,1105.76184,0,0,1,118.92047,76.3811,1148.94285,1148.94285,0,0,1,108.514,90.56183c34.1997,32.4336,66.40893,67.04669,95.39636,104.25019a679.57654,679.57654,0,0,1,40.65857,57.8471,487.34875,487.34875,0,0,1,33.32568,62.35,326.20725,326.20725,0,0,1,12.52429,33.08862,238.73886,238.73886,0,0,1,8.30518,34.39539l.67615,4.37707.52636,4.39856.25745,2.19983.18372,2.20776c.11487,1.47242.26184,2.94239.35,4.41663a163.3776,163.3776,0,0,1,.07251,17.72021,132.74925,132.74925,0,0,1-2.28735,17.57825,104.258,104.258,0,0,1-5.08093,16.98474c-.579,1.36145-1.08509,2.75489-1.72425,4.0896l-1.91967,4.00318-2.14258,3.88818c-.34558.65491-.72742,1.28845-1.135,1.90674l-1.18994,1.87414a89.60394,89.60394,0,0,1-11.06263,13.84974,93.37386,93.37386,0,0,1-13.64282,11.308c-2.41955,1.70361-4.97961,3.18677-7.52783,4.68323l-3.91907,2.072c-1.30481.6936-2.66858,1.2677-3.99988,1.90735a138.56086,138.56086,0,0,1-33.82678,10.17871l-2.17749.39245-2.18957.31617-4.38025.62231c-2.93347.30127-5.85791.69946-8.80188.88135-5.87561.52649-11.77515.65906-17.66846.74267-23.59326.0044-47.09509-3.01733-70.15185-7.814a551.71786,551.71786,0,0,1-67.99585-19.10925c-44.5-15.51368-87.34693-35.50965-128.54548-58.32154A1105.92718,1105.92718,0,0,1,892.106,1174.96765Z" transform="translate(6450.96769 6302.25559)" fill="url(#k)"/><path d="M615.99585,715.14819A80.1404,80.1404,0,0,1,638.231,691.01135,101.791,101.791,0,0,1,667.89417,676.755a155.87092,155.87092,0,0,1,32.453-5.97,235.91754,235.91754,0,0,1,33.03265-.18274,368.78193,368.78193,0,0,1,65.17725,10.58057,566.88784,566.88784,0,0,1,63.0108,19.90833c41.244,15.58477,80.95032,35.05584,119.19043,56.965a1101.30258,1101.30258,0,0,1,211.01953,158.47119c31.755,30.587,61.62049,63.21881,88.40857,98.28943a627.99427,627.99427,0,0,1,37.42737,54.56348,420.54311,420.54311,0,0,1,30.09631,58.94006c8.30506,20.44007,14.78345,41.83594,16.98609,63.92871a138.88157,138.88157,0,0,1,.697,16.61231,112.208,112.208,0,0,1-1.45691,16.58545c-.25244,1.36694-.41638,2.75024-.74207,4.10364l-.90515,4.07385-1.119,4.0227c-.3457,1.34912-.8667,2.64588-1.292,3.97119a87.067,87.067,0,0,1-6.97534,15.16809,81.02542,81.02542,0,0,1-22.5321,24.41346,102.72864,102.72864,0,0,1-29.95423,14.36,156.76529,156.76529,0,0,1-32.65124,5.97107,236.78362,236.78362,0,0,1-33.15857.14771,369.57529,369.57529,0,0,1-65.3136-10.67493,567.63066,567.63066,0,0,1-63.07276-20.00366c-20.64306-7.79321-40.85986-16.67285-60.71447-26.27234-9.93531-4.78626-19.74866-9.82019-29.48792-14.98889q-14.61365-7.74573-28.92413-16.04273a1078.53633,1078.53633,0,0,1-110.079-73.207,1085.47843,1085.47843,0,0,1-100.49805-85.85425,877.66929,877.66929,0,0,1-88.10052-98.45416,627.25951,627.25951,0,0,1-37.32282-54.53888,419.72321,419.72321,0,0,1-29.97375-58.85742c-8.26178-20.39526-14.69013-41.72839-16.85492-63.69678a137.94458,137.94458,0,0,1-.67468-16.50494,111.24734,111.24734,0,0,1,1.46264-16.44788c.25177-1.35388.415-2.725.73944-4.06457l.90052-4.03284,1.11187-3.97967c.34308-1.335.86066-2.61609,1.28241-3.92676A86.08586,86.08586,0,0,1,615.99585,715.14819Zm0,0a86.06935,86.06935,0,0,0-6.89179,14.98853c-.42022,1.31091-.93627,2.5921-1.27777,3.92731l-1.10723,3.97973-.89576,4.03266c-.32281,1.33941-.48455,2.71045-.73474,4.064a111.21864,111.21864,0,0,0-1.444,16.44306,137.89141,137.89141,0,0,0,.69263,16.49682c2.188,21.95581,8.63678,43.27179,16.91742,63.64887a419.53533,419.53533,0,0,0,30.02576,58.79913,626.998,626.998,0,0,0,37.36773,54.4754c26.74921,35.02387,56.58417,67.61969,88.3075,98.17621a1084.671,1084.671,0,0,0,100.66369,85.50647,1077.35075,1077.35075,0,0,0,110.1615,72.81555c38.20063,21.887,77.86371,41.333,119.04511,56.89661a565.88533,565.88533,0,0,0,62.89892,19.873,367.77833,367.77833,0,0,0,64.99732,10.55249,234.92311,234.92311,0,0,0,32.889-.1814,154.87509,154.87509,0,0,0,32.24231-5.92993A100.7932,100.7932,0,0,0,1329.22571,1279.6a79.23527,79.23527,0,0,0,21.95923-23.83069,85.08873,85.08873,0,0,0,6.82544-14.8031c.41674-1.29627.92932-2.56177,1.26818-3.88294l1.10022-3.93664.891-3.9917c.32165-1.32556.48266-2.68433.73217-4.02491a110.26245,110.26245,0,0,0,1.44971-16.30554,136.95471,136.95471,0,0,0-.67029-16.3894c-2.15027-21.8313-8.54883-43.0846-16.78625-63.41687a418.72934,418.72934,0,0,0-29.90308-58.71655,626.29869,626.29869,0,0,0-37.26318-54.45081,876.3928,876.3928,0,0,0-87.99951-98.34094A1100.31021,1100.31021,0,0,0,980.44666,758.59772q-14.29817-8.27637-28.89374-16.02545c-9.72858-5.163-19.53095-10.19123-29.45435-14.97162-19.83142-9.58673-40.02106-18.45728-60.63318-26.23841a566.6415,566.6415,0,0,0-62.96093-19.9685A368.59442,368.59442,0,0,0,733.37085,670.747a235.79243,235.79243,0,0,0-33.01489.14636,155.779,155.779,0,0,0-32.44068,5.931A101.73666,101.73666,0,0,0,638.252,691.04077,80.12139,80.12139,0,0,0,615.99585,715.14819Z" transform="translate(6450.96769 6302.25559)" fill="url(#l)"/><path d="M852.93741,852.46879C643.6324,1020.606,538.21985,1222.362,617.49182,1303.10337s313.20978,9.89307,522.51479-158.24415S1454.72417,774.966,1375.4522,694.22464,1062.24242,684.33156,852.93741,852.46879Zm515.36067-148.57367c72.97281,74.32543-27.30616,262.65426-223.97939,420.64422-196.67315,157.98994-415.26445,225.8134-488.23726,151.488s27.30615-262.65426,223.97935-420.6442S1295.32528,629.5697,1368.29808,703.89512Z" transform="translate(6450.96769 6302.25559)" stroke-miterlimit="10" stroke-width="2" fill="url(#m)" stroke="url(#n)"/><circle cx="7096.9381" cy="7207.23631" r="27.02402" stroke-miterlimit="10" fill="url(#o)" stroke="url(#p)"/><circle cx="7331.86695" cy="7662.68121" r="27.02402" stroke-miterlimit="10" fill="url(#q)" stroke="url(#r)"/><circle cx="7815.43756" cy="7176.96941" r="27.02402" stroke-miterlimit="10" fill="url(#s)" stroke="url(#t)"/><circle cx="7451.97284" cy="7298.53184" r="60" stroke-miterlimit="10" stroke-width="5" fill="url(#u)" stroke="url(#v)"/></svg>